<svg width="100" height="30" viewBox="0 0 100 30" fill="none" xmlns="http://www.w3.org/2000/svg">
<rect width="100" height="30" rx="4" fill="#4FB8FF"/>
<path d="M18.1355 10.5859C18.0855 10.9864 18.0479 11.3744 18.0229 11.7498C18.0104 12.1253 18.0041 12.4131 18.0041 12.6134C18.0041 12.8387 18.0104 13.0577 18.0229 13.2704C18.0354 13.4707 18.0479 13.6397 18.0604 13.7773H17.6286C17.541 12.7385 17.322 12.0189 16.9716 11.6184C16.6337 11.2179 16.0767 11.0177 15.3008 11.0177H13.9303C13.5048 11.0177 13.1794 11.0552 12.9541 11.1303C12.7413 11.1929 12.5974 11.3368 12.5223 11.5621C12.4472 11.7748 12.4097 12.1128 12.4097 12.5758V20.01C12.4097 20.4606 12.4535 20.7985 12.5411 21.0238C12.6412 21.2491 12.829 21.3993 13.1043 21.4743C13.3796 21.5494 13.7801 21.5995 14.3058 21.6245V22C13.9804 21.975 13.5674 21.9625 13.0667 21.9625C12.5661 21.9499 12.0593 21.9437 11.5461 21.9437C11.058 21.9437 10.6012 21.9499 10.1757 21.9625C9.75014 21.9625 9.40597 21.975 9.14314 22V21.6245C9.56867 21.5995 9.88781 21.5494 10.1006 21.4743C10.3259 21.3993 10.476 21.2491 10.5511 21.0238C10.6262 20.7985 10.6638 20.4606 10.6638 20.01V12.5758C10.6638 12.1128 10.6262 11.7748 10.5511 11.5621C10.476 11.3368 10.3259 11.1866 10.1006 11.1115C9.88781 11.0239 9.56867 10.9739 9.14314 10.9613V10.5859C9.74389 10.5984 10.3759 10.6109 11.0392 10.6234C11.7151 10.6359 12.3534 10.6422 12.9541 10.6422C13.5549 10.6422 14.0367 10.6422 14.3996 10.6422C14.9503 10.6422 15.5698 10.6422 16.2582 10.6422C16.9591 10.6297 17.5848 10.6109 18.1355 10.5859ZM15.4134 16.0677C15.4134 16.0677 15.4134 16.1302 15.4134 16.2554C15.4134 16.3805 15.4134 16.4431 15.4134 16.4431H11.8465C11.8465 16.4431 11.8465 16.3805 11.8465 16.2554C11.8465 16.1302 11.8465 16.0677 11.8465 16.0677H15.4134ZM15.9578 14.1528C15.9078 14.7285 15.8827 15.1603 15.8827 15.4481C15.8952 15.736 15.9015 16.0051 15.9015 16.2554C15.9015 16.5057 15.9078 16.7748 15.9203 17.0626C15.9328 17.3505 15.9641 17.7823 16.0141 18.358H15.5824C15.5448 18.0451 15.4822 17.7447 15.3946 17.4569C15.307 17.169 15.1568 16.9312 14.9441 16.7435C14.7313 16.5432 14.4059 16.4431 13.9679 16.4431V16.0677C14.4059 16.0677 14.725 15.955 14.9253 15.7297C15.1381 15.5045 15.282 15.2416 15.3571 14.9413C15.4322 14.6409 15.4885 14.3781 15.526 14.1528H15.9578Z" fill="black"/>
<path d="M24.9177 10.0602C26.0691 10.0602 27.0766 10.2918 27.9402 10.7549C28.8037 11.2054 29.4733 11.8687 29.9489 12.7448C30.437 13.6084 30.681 14.6659 30.681 15.9175C30.681 17.1315 30.4307 18.1953 29.9301 19.1089C29.442 20.0226 28.7599 20.7359 27.8838 21.2491C27.0203 21.7497 26.0253 22 24.8989 22C23.7475 22 22.74 21.7747 21.8764 21.3242C21.0128 20.8611 20.337 20.1915 19.8489 19.3154C19.3733 18.4394 19.1355 17.3818 19.1355 16.1428C19.1355 14.9288 19.3796 13.8649 19.8677 12.9513C20.3683 12.0377 21.0504 11.3306 21.9139 10.8299C22.79 10.3168 23.7913 10.0602 24.9177 10.0602ZM24.8426 10.3982C24.0666 10.3982 23.3908 10.6422 22.8151 11.1303C22.2394 11.6059 21.7951 12.2692 21.4822 13.1203C21.1693 13.9713 21.0128 14.9538 21.0128 16.0677C21.0128 17.2066 21.1881 18.1953 21.5385 19.0338C21.9014 19.8724 22.3833 20.5232 22.984 20.9863C23.5848 21.4368 24.2481 21.6621 24.974 21.6621C25.7499 21.6621 26.4258 21.4243 27.0015 20.9487C27.5772 20.4606 28.0215 19.791 28.3344 18.94C28.6473 18.0764 28.8037 17.0939 28.8037 15.9926C28.8037 14.8412 28.6222 13.8524 28.2593 13.0264C27.9089 12.1879 27.4333 11.5433 26.8325 11.0928C26.2443 10.6297 25.581 10.3982 24.8426 10.3982Z" fill="black"/>
<path d="M37.4632 10.0602C38.6146 10.0602 39.6221 10.2918 40.4857 10.7549C41.3493 11.2054 42.0188 11.8687 42.4944 12.7448C42.9825 13.6084 43.2266 14.6659 43.2266 15.9175C43.2266 17.1315 42.9763 18.1953 42.4756 19.1089C41.9875 20.0226 41.3055 20.7359 40.4294 21.2491C39.5658 21.7497 38.5708 22 37.4444 22C36.293 22 35.2855 21.7747 34.4219 21.3242C33.5584 20.8611 32.8825 20.1915 32.3944 19.3154C31.9188 18.4394 31.681 17.3818 31.681 16.1428C31.681 14.9288 31.9251 13.8649 32.4132 12.9513C32.9138 12.0377 33.5959 11.3306 34.4595 10.8299C35.3356 10.3168 36.3368 10.0602 37.4632 10.0602ZM37.3881 10.3982C36.6121 10.3982 35.9363 10.6422 35.3606 11.1303C34.7849 11.6059 34.3406 12.2692 34.0277 13.1203C33.7148 13.9713 33.5584 14.9538 33.5584 16.0677C33.5584 17.2066 33.7336 18.1953 34.084 19.0338C34.447 19.8724 34.9288 20.5232 35.5296 20.9863C36.1303 21.4368 36.7936 21.6621 37.5195 21.6621C38.2955 21.6621 38.9713 21.4243 39.547 20.9487C40.1227 20.4606 40.567 19.791 40.8799 18.94C41.1928 18.0764 41.3493 17.0939 41.3493 15.9926C41.3493 14.8412 41.1678 13.8524 40.8048 13.0264C40.4544 12.1879 39.9788 11.5433 39.3781 11.0928C38.7898 10.6297 38.1265 10.3982 37.3881 10.3982Z" fill="black"/>
<path d="M49.3517 10.5859C51.3291 10.5859 52.7997 11.0615 53.7634 12.0126C54.7396 12.9638 55.2277 14.3405 55.2277 16.1428C55.2277 17.3192 54.9899 18.3455 54.5143 19.2216C54.0512 20.0976 53.3691 20.7797 52.468 21.2678C51.5669 21.7559 50.4718 22 49.1827 22C48.995 22 48.7447 21.9937 48.4318 21.9812C48.1189 21.9687 47.7935 21.9625 47.4556 21.9625C47.1302 21.9499 46.8298 21.9437 46.5545 21.9437C46.1164 21.9437 45.6846 21.9499 45.2591 21.9625C44.8336 21.9625 44.4894 21.975 44.2266 22V21.6245C44.6521 21.5995 44.9713 21.5494 45.184 21.4743C45.4093 21.3993 45.5595 21.2491 45.6346 21.0238C45.7097 20.7985 45.7472 20.4606 45.7472 20.01V12.5758C45.7472 12.1128 45.7097 11.7686 45.6346 11.5433C45.5595 11.318 45.4093 11.1678 45.184 11.0928C44.9713 11.0177 44.6521 10.9739 44.2266 10.9613V10.5859C44.4894 10.5984 44.8336 10.6172 45.2591 10.6422C45.6846 10.6547 46.1039 10.6547 46.5169 10.6422C46.8048 10.6297 47.1239 10.6234 47.4744 10.6234C47.8248 10.6109 48.1627 10.6046 48.4881 10.6046C48.826 10.5921 49.1139 10.5859 49.3517 10.5859ZM48.8823 10.9238C48.3066 10.9238 47.9312 11.0302 47.756 11.2429C47.5807 11.4557 47.4931 11.8875 47.4931 12.5383V20.0476C47.4931 20.6984 47.5807 21.1302 47.756 21.3429C47.9437 21.5557 48.3254 21.6621 48.9011 21.6621C50.0651 21.6621 50.9662 21.4556 51.6045 21.0426C52.2553 20.617 52.7058 20.0038 52.9561 19.2028C53.219 18.3893 53.3504 17.3943 53.3504 16.2178C53.3504 15.0289 53.2064 14.0464 52.9186 13.2704C52.6432 12.482 52.1802 11.8937 51.5294 11.5058C50.8786 11.1178 49.9962 10.9238 48.8823 10.9238Z" fill="black"/>
<path d="M56.5995 22L56.5482 21.6026C56.7533 21.5769 56.9414 21.4829 57.1123 21.3205C57.2832 21.1667 57.3687 20.9616 57.3687 20.7051C57.3687 20.4915 57.3132 20.312 57.2021 20.1667C57.0995 20.0299 56.9756 19.8932 56.8303 19.7564C56.685 19.6282 56.5482 19.4744 56.42 19.2949C56.2918 19.1154 56.2277 18.8804 56.2277 18.5898C56.2277 18.2051 56.3602 17.8761 56.6251 17.6026C56.8986 17.3291 57.232 17.1923 57.6251 17.1923C57.9585 17.1923 58.2448 17.2949 58.4841 17.5C58.7234 17.7051 58.9072 17.9573 59.0354 18.2564C59.1636 18.547 59.2277 18.8333 59.2277 19.1154C59.2277 19.7308 58.9756 20.3376 58.4713 20.9359C57.967 21.5342 57.3431 21.8889 56.5995 22Z" fill="black"/>
<path d="M65.0149 10.5859V10.9613C64.5893 10.9739 64.2639 11.0239 64.0387 11.1115C63.8259 11.1866 63.682 11.3368 63.6069 11.5621C63.5318 11.7748 63.4942 12.1128 63.4942 12.5758V20.01C63.4942 20.4606 63.5318 20.7985 63.6069 21.0238C63.682 21.2491 63.8259 21.3993 64.0387 21.4743C64.2639 21.5369 64.5893 21.5682 65.0149 21.5682H66.1976C66.7483 21.5682 67.2238 21.4618 67.6243 21.2491C68.0373 21.0363 68.369 20.6921 68.6193 20.2165C68.8696 19.7284 69.0261 19.0714 69.0886 18.2454H69.5204C69.4829 18.6333 69.4641 19.1465 69.4641 19.7848C69.4641 19.9975 69.4704 20.3104 69.4829 20.7234C69.5079 21.1364 69.5455 21.562 69.5955 22C68.9823 21.975 68.2939 21.9625 67.5305 21.9625C66.767 21.9499 66.0849 21.9437 65.4842 21.9437C65.1212 21.9437 64.6394 21.9437 64.0387 21.9437C63.4379 21.9437 62.7996 21.9499 62.1238 21.9625C61.4605 21.9625 60.8284 21.975 60.2277 22V21.6245C60.6532 21.5995 60.9724 21.5494 61.1851 21.4743C61.4104 21.3993 61.5606 21.2491 61.6357 21.0238C61.7108 20.7985 61.7483 20.4606 61.7483 20.01V12.5758C61.7483 12.1128 61.7108 11.7748 61.6357 11.5621C61.5606 11.3368 61.4104 11.1866 61.1851 11.1115C60.9724 11.0239 60.6532 10.9739 60.2277 10.9613V10.5859C60.4905 10.5984 60.8347 10.6109 61.2602 10.6234C61.6857 10.6359 62.1426 10.6422 62.6307 10.6422C63.0687 10.6422 63.5005 10.6359 63.926 10.6234C64.3641 10.6109 64.727 10.5984 65.0149 10.5859Z" fill="black"/>
<path d="M75.3827 10.5859V10.9613C74.9572 10.9739 74.6318 11.0239 74.4065 11.1115C74.1937 11.1866 74.0498 11.3368 73.9747 11.5621C73.8996 11.7748 73.8621 12.1128 73.8621 12.5758V20.01C73.8621 20.4606 73.8996 20.7985 73.9747 21.0238C74.0498 21.2491 74.1937 21.3993 74.4065 21.4743C74.6318 21.5369 74.9572 21.5682 75.3827 21.5682H76.5654C77.1161 21.5682 77.5917 21.4618 77.9922 21.2491C78.4052 21.0363 78.7368 20.6921 78.9872 20.2165C79.2375 19.7284 79.3939 19.0714 79.4565 18.2454H79.8883C79.8507 18.6333 79.832 19.1465 79.832 19.7848C79.832 19.9975 79.8382 20.3104 79.8507 20.7234C79.8758 21.1364 79.9133 21.562 79.9634 22C79.3501 21.975 78.6618 21.9625 77.8983 21.9625C77.1349 21.9499 76.4528 21.9437 75.852 21.9437C75.4891 21.9437 75.0072 21.9437 74.4065 21.9437C73.8057 21.9437 73.1675 21.9499 72.4916 21.9625C71.8283 21.9625 71.1963 21.975 70.5955 22V21.6245C71.0211 21.5995 71.3402 21.5494 71.553 21.4743C71.7782 21.3993 71.9284 21.2491 72.0035 21.0238C72.0786 20.7985 72.1162 20.4606 72.1162 20.01V12.5758C72.1162 12.1128 72.0786 11.7748 72.0035 11.5621C71.9284 11.3368 71.7782 11.1866 71.553 11.1115C71.3402 11.0239 71.0211 10.9739 70.5955 10.9613V10.5859C70.8584 10.5984 71.2025 10.6109 71.6281 10.6234C72.0536 10.6359 72.5104 10.6422 72.9985 10.6422C73.4365 10.6422 73.8683 10.6359 74.2939 10.6234C74.7319 10.6109 75.0948 10.5984 75.3827 10.5859Z" fill="black"/>
<path d="M86.5578 10.0602C87.0083 10.0602 87.4026 10.1166 87.7405 10.2292C88.0784 10.3418 88.385 10.492 88.6604 10.6798C88.9357 10.8675 89.1986 11.0677 89.4489 11.2805C89.9244 11.681 90.206 11.3619 90.2937 10.3231H90.7254C90.7004 10.7486 90.6816 11.2617 90.6691 11.8625C90.6566 12.4632 90.6503 13.2642 90.6503 14.2654H90.2186C90.131 13.8024 90.0433 13.4332 89.9557 13.1578C89.8806 12.8825 89.7868 12.6509 89.6741 12.4632C89.574 12.263 89.4426 12.0627 89.2799 11.8625C88.9295 11.3869 88.5102 11.0302 88.0221 10.7924C87.534 10.5546 87.0209 10.4357 86.4827 10.4357C85.3813 10.4357 84.499 10.9363 83.8357 11.9376C83.1723 12.9388 82.8407 14.3155 82.8407 16.0677C82.8407 17.2692 83.0096 18.2829 83.3476 19.1089C83.6855 19.935 84.136 20.5607 84.6992 20.9863C85.2749 21.4118 85.9132 21.6245 86.6141 21.6245C87.1523 21.6245 87.6779 21.5057 88.1911 21.2679C88.7042 21.0301 89.136 20.6734 89.4864 20.1978C89.7367 19.8724 89.9182 19.5282 90.0308 19.1653C90.156 18.7898 90.2624 18.2704 90.35 17.6071H90.7818C90.7818 18.6459 90.788 19.4844 90.8005 20.1227C90.8131 20.761 90.8318 21.2991 90.8569 21.7372H90.4251C90.375 21.199 90.2811 20.8548 90.1435 20.7047C90.0183 20.542 89.8306 20.567 89.5803 20.7798C89.1923 21.1052 88.7668 21.393 88.3037 21.6433C87.8406 21.8811 87.2524 22 86.539 22C85.4251 22 84.4489 21.7747 83.6104 21.3242C82.7719 20.8611 82.121 20.1915 81.658 19.3154C81.1949 18.4394 80.9634 17.3818 80.9634 16.1428C80.9634 14.9288 81.2012 13.8649 81.6767 12.9513C82.1523 12.0377 82.8094 11.3306 83.6479 10.8299C84.499 10.3168 85.4689 10.0602 86.5578 10.0602Z" fill="black"/>
</svg>
